<?xml version="1.0" encoding="UTF-8" standalone="no"?>
<svg
   xmlns:dc="http://purl.org/dc/elements/1.1/"
   xmlns:cc="http://creativecommons.org/ns#"
   xmlns:rdf="http://www.w3.org/1999/02/22-rdf-syntax-ns#"
   xmlns:svg="http://www.w3.org/2000/svg"
   xmlns="http://www.w3.org/2000/svg"
   xmlns:xlink="http://www.w3.org/1999/xlink"
   xmlns:sodipodi="http://sodipodi.sourceforge.net/DTD/sodipodi-0.dtd"
   xmlns:inkscape="http://www.inkscape.org/namespaces/inkscape"
   inkscape:version="1.0 (4035a4f, 2020-05-01)"
   height="51.442646"
   width="51.442646"
   sodipodi:docname="icons.svg"
   id="svg1167"
   version="1.1">
  <metadata
     id="metadata1171">
    <rdf:RDF>
      <cc:Work
         rdf:about="">
        <dc:format>image/svg+xml</dc:format>
        <dc:type
           rdf:resource="http://purl.org/dc/dcmitype/StillImage" />
        <dc:title />
      </cc:Work>
    </rdf:RDF>
  </metadata>
  <sodipodi:namedview
     inkscape:document-rotation="0"
     fit-margin-bottom="0"
     fit-margin-right="0"
     fit-margin-left="0"
     fit-margin-top="0"
     inkscape:current-layer="svg1167"
     inkscape:window-maximized="1"
     inkscape:window-y="0"
     inkscape:window-x="0"
     inkscape:cy="37.236908"
     inkscape:cx="-99.28814"
     inkscape:zoom="2.867318"
     showgrid="false"
     id="namedview1169"
     inkscape:window-height="998"
     inkscape:window-width="1920"
     inkscape:pageshadow="2"
     inkscape:pageopacity="0"
     guidetolerance="10"
     gridtolerance="10"
     objecttolerance="10"
     borderopacity="1"
     bordercolor="#666666"
     pagecolor="#ffffff" />
  <defs
     id="defs1016">
    <linearGradient
       id="linearGradient1150"
       inkscape:collect="always">
      <stop
         id="stop1146"
         offset="0"
         style="stop-color:#0073a8;stop-opacity:1;" />
      <stop
         id="stop1148"
         offset="1"
         style="stop-color:#0073a8;stop-opacity:0;" />
    </linearGradient>
    <linearGradient
       id="linearGradient1142"
       inkscape:collect="always">
      <stop
         id="stop1138"
         offset="0"
         style="stop-color:#0073a8;stop-opacity:1;" />
      <stop
         id="stop1140"
         offset="1"
         style="stop-color:#0073a8;stop-opacity:0;" />
    </linearGradient>
    <path
       inkscape:connector-curvature="0"
       d="M 0,0 H 76 V 11 H 0 Z"
       id="a" />
    <path
       inkscape:connector-curvature="0"
       d="M 0,0 H 28.881 V 23.952 H 0 Z"
       id="path1014" />
    <linearGradient
       gradientUnits="userSpaceOnUse"
       y2="-51.722286"
       x2="-79.819244"
       y1="6.5707021"
       x1="-143.35042"
       id="linearGradient1144"
       xlink:href="#linearGradient1142"
       inkscape:collect="always" />
    <linearGradient
       gradientTransform="matrix(1.1508943,0,0,1.1508943,24.756776,-0.550391)"
       gradientUnits="userSpaceOnUse"
       y2="-36.103153"
       x2="-101.89305"
       y1="-12.690551"
       x1="-128.57251"
       id="linearGradient1152"
       xlink:href="#linearGradient1150"
       inkscape:collect="always" />
  </defs>
  <symbol
     transform="translate(-14.195146,-37.337373)"
     viewBox="0 0 26 14"
     id="arrow_grey">
    <title
       id="title1018">Shape</title>
    <path
       style="fill:#c0c0c0"
       inkscape:connector-curvature="0"
       id="path1020"
       d="M 0.86,13.43 0,12.57 12.584,0 25.168,12.57 24.308,13.43 12.58,1.704" />
  </symbol>
  <symbol
     transform="translate(-14.195146,-37.337373)"
     viewBox="0 0 16 16"
     id="arrows_down">
    <g
       style="fill:#ffffff;fill-rule:nonzero"
       id="g1027">
      <path
         inkscape:connector-curvature="0"
         id="path1023"
         d="M 0.527,7 0,7.542 7.713,15.47 15.426,7.542 14.9,7 7.71,14.395 Z"
         class="flash" />
      <path
         inkscape:connector-curvature="0"
         id="path1025"
         d="M 0.527,0 0,0.542 7.713,8.47 15.426,0.542 14.9,0 7.71,7.395 Z"
         class="flash" />
    </g>
  </symbol>
  <symbol
     transform="translate(-14.195146,-37.337373)"
     viewBox="0 0 50 50"
     id="beach">
    <title
       id="title1030">Group 18</title>
    <g
       style="fill:none;fill-rule:evenodd"
       id="g1042">
      <rect
         style="fill:#ffffff"
         y="0"
         x="0"
         id="rect1032"
         rx="25"
         height="50"
         width="50" />
      <g
         style="fill:#f18030;fill-rule:nonzero"
         id="g1040">
        <path
           inkscape:connector-curvature="0"
           id="path1034"
           d="m 12.414,37.751 -0.134,-1.012 6.176,-0.824 a 51.545,51.545 0 0 1 18.29,0.832 l -0.228,0.995 A 50.45,50.45 0 0 0 18.59,36.928 Z M 35.61,27.599 18.676,21.621 18.366,20.967 c 0.79,-2.196 2.47,-3.934 4.73,-4.897 2.257,-0.96 4.805,-1.02 7.178,-0.165 4.922,1.774 7.608,6.882 5.986,11.386 z m -16.094,-6.763 15.938,5.625 c 1.08,-3.852 -1.31,-8.078 -5.526,-9.597 -2.128,-0.767 -4.413,-0.716 -6.432,0.145 -1.829,0.779 -3.225,2.126 -3.98,3.827 z" />
        <path
           inkscape:connector-curvature="0"
           id="path1036"
           d="m 31.17,25.963 -0.959,-0.345 0.173,-0.48 c 1.547,-4.294 1.012,-7.744 -0.455,-8.274 -0.723,-0.26 -1.737,0.203 -2.777,1.276 -1.147,1.184 -2.172,2.93 -2.888,4.916 l -0.172,0.48 -0.96,-0.346 0.173,-0.48 c 0.763,-2.118 1.87,-3.994 3.115,-5.28 1.35,-1.395 2.722,-1.935 3.856,-1.526 2.241,0.808 2.71,5.016 1.069,9.58 l -0.175,0.48 z" />
        <path
           inkscape:connector-curvature="0"
           id="path1038"
           d="M 22.414,35.857 26.78,24.082 27.736,24.437 23.37,36.21 Z" />
      </g>
    </g>
  </symbol>
  <symbol
     transform="translate(-14.195146,-37.337373)"
     viewBox="0 0 78 13"
     id="border_down">
    <g
       style="fill:none;fill-rule:evenodd"
       id="g1054">
      <path
         style="fill:#ffffff;fill-rule:nonzero"
         inkscape:connector-curvature="0"
         id="path1045"
         d="M 1.085,2.88 0.23,0.53 77.416,0 76.845,2.88 38.751,12.006 Z" />
      <g
         id="g1052"
         transform="translate(1,2)">
        <mask
           fill="#fff"
           id="b">
          <use
             height="100%"
             width="100%"
             y="0"
             x="0"
             id="use1047"
             xlink:href="#a" />
        </mask>
        <path
           style="stroke:currentColor;stroke-linecap:square"
           inkscape:connector-curvature="0"
           id="path1050"
           d="M -173,0 1.621,1 38.352,10 75.685,1 241.275,0"
           mask="url(#b)" />
      </g>
    </g>
  </symbol>
  <symbol
     transform="translate(-14.195146,-37.337373)"
     viewBox="0 0 17 16"
     id="calendar">
    <title
       id="title1057">Group 19</title>
    <path
       style="fill:#c0c0c0;fill-rule:nonzero"
       inkscape:connector-curvature="0"
       id="path1059"
       d="M 14.687,1.053 H 12.903 V 0.554 a 0.558,0.558 0 0 0 -1.114,0 v 0.5 H 8.946 v -0.5 a 0.558,0.558 0 0 0 -1.115,0 v 0.5 H 4.99 v -0.5 a 0.558,0.558 0 0 0 -1.115,0 v 0.5 H 2.09 C 0.948,1.053 0,1.995 0,3.131 v 10.31 c 0,1.137 0.948,2.08 2.09,2.08 h 12.597 c 1.143,0 2.09,-0.943 2.09,-2.08 V 3.133 c 0,-1.136 -0.947,-2.079 -2.09,-2.079 z m 0.975,12.39 c 0,0.527 -0.446,0.97 -0.975,0.97 H 2.09 A 0.985,0.985 0 0 1 1.115,13.443 V 6.569 h 14.547 z m 0,-7.983 H 1.115 V 3.132 c 0,-0.527 0.446,-0.97 0.975,-0.97 h 1.784 v 0.499 a 0.558,0.558 0 0 0 1.115,0 V 2.162 H 7.83 v 0.499 a 0.558,0.558 0 0 0 1.115,0 V 2.162 h 2.843 v 0.499 a 0.558,0.558 0 0 0 1.114,0 V 2.162 h 1.784 c 0.53,0 0.975,0.443 0.975,0.97 V 5.46 Z" />
  </symbol>
  <symbol
     transform="translate(-14.195146,-37.337373)"
     viewBox="0 0 27 27"
     id="facebook">
    <g
       style="fill:none"
       id="g1066">
      <path
         style="fill:currentColor"
         inkscape:connector-curvature="0"
         id="path1062"
         d="m 25.445,26.928 c 0.819,0 1.483,-0.664 1.483,-1.483 V 1.544 c 0,-0.819 -0.664,-1.483 -1.483,-1.483 H 1.544 c -0.819,0 -1.483,0.664 -1.483,1.483 v 23.901 c 0,0.819 0.664,1.483 1.483,1.483 z" />
      <path
         style="fill:#ffffff"
         inkscape:connector-curvature="0"
         id="path1064"
         d="M 18.599,26.928 V 16.524 h 3.492 l 0.523,-4.055 H 18.599 V 9.88 c 0,-1.174 0.326,-1.974 2.009,-1.974 L 22.755,7.905 V 4.278 c -0.371,-0.049 -1.646,-0.16 -3.129,-0.16 -3.096,0 -5.215,1.89 -5.215,5.36 v 2.99 H 10.91 v 4.055 h 3.501 v 10.404 h 4.187 z" />
    </g>
  </symbol>
  <symbol
     transform="translate(-14.195146,-37.337373)"
     viewBox="0 0 31 31"
     id="google">
    <g
       style="fill:none;fill-rule:nonzero"
       id="g1073">
      <ellipse
         style="fill:currentColor"
         id="ellipse1069"
         ry="15.255"
         rx="15.39"
         cy="15.526"
         cx="15.39" />
      <path
         style="fill:#ffffff"
         inkscape:connector-curvature="0"
         id="path1071"
         d="m 5.004,15.299 c -0.124,-3.244 2.742,-6.24 6.017,-6.28 1.67,-0.14 3.293,0.502 4.557,1.55 a 28.654,28.654 0 0 1 -1.61,1.646 c -1.111,-0.67 -2.45,-1.18 -3.75,-0.727 -2.097,0.591 -3.366,3.045 -2.59,5.078 0.642,2.123 3.248,3.288 5.29,2.396 1.057,-0.375 1.754,-1.342 2.06,-2.38 -1.212,-0.025 -2.424,-0.01 -3.636,-0.043 -0.003,-0.715 -0.006,-1.427 -0.003,-2.141 2.02,-0.003 4.045,-0.01 6.068,0.009 0.125,1.75 -0.136,3.625 -1.284,5.03 -1.573,2.006 -4.478,2.595 -6.841,1.808 C 6.773,20.428 4.949,17.923 5.004,15.299 Z M 21.827,12 h 1.802 c 0.004,0.598 0.01,1.198 0.013,1.796 0.603,0.006 1.209,0.009 1.812,0.012 v 1.79 l -1.812,0.009 c -0.006,0.6 -0.01,1.198 -0.013,1.798 -0.602,-0.003 -1.206,0 -1.805,0 -0.006,-0.6 -0.006,-1.198 -0.012,-1.795 C 21.209,15.603 20.603,15.6 20,15.597 v -1.79 c 0.603,-0.002 1.206,-0.005 1.812,-0.011 0.003,-0.598 0.009,-1.198 0.015,-1.796 z" />
    </g>
  </symbol>
  <symbol
     transform="translate(-14.195146,-37.337373)"
     viewBox="0 0 29 29"
     id="instagram">
    <path
       style="fill:currentColor;fill-rule:nonzero"
       inkscape:connector-curvature="0"
       id="path1076"
       d="m 14.5,2.614 c 3.872,0 4.33,0.014 5.86,0.084 3.93,0.179 5.765,2.044 5.944,5.944 0.07,1.529 0.084,1.988 0.084,5.86 0,3.872 -0.015,4.33 -0.084,5.858 -0.18,3.897 -2.01,5.765 -5.944,5.944 -1.53,0.07 -1.986,0.085 -5.86,0.085 -3.871,0 -4.33,-0.015 -5.86,-0.085 C 4.702,26.124 2.876,24.251 2.697,20.359 2.627,18.831 2.612,18.373 2.612,14.5 2.612,10.629 2.628,10.17 2.697,8.64 2.877,4.741 4.707,2.876 8.641,2.697 10.171,2.628 10.629,2.614 14.5,2.614 Z M 14.5,0 C 10.562,0 10.069,0.017 8.522,0.087 3.256,0.329 0.33,3.25 0.088,8.521 0.017,10.07 0,10.562 0,14.5 c 0,3.938 0.017,4.432 0.087,5.979 0.242,5.266 3.163,8.192 8.434,8.434 1.548,0.07 2.041,0.087 5.979,0.087 3.938,0 4.432,-0.017 5.979,-0.087 5.26,-0.242 8.195,-3.163 8.433,-8.434 C 28.983,18.932 29,18.438 29,14.5 29,10.562 28.983,10.069 28.913,8.522 28.676,3.262 25.751,0.33 20.48,0.088 18.932,0.017 18.438,0 14.5,0 Z m 0,7.054 a 7.446,7.446 0 1 0 0,14.892 7.446,7.446 0 0 0 0,-14.892 z m 0,12.28 A 4.833,4.833 0 1 1 14.499,9.668 4.833,4.833 0 0 1 14.5,19.333 Z M 22.24,5.02 a 1.7405,1.7405 0 1 0 0,3.481 1.7405,1.7405 0 0 0 0,-3.481 z" />
  </symbol>
  <symbol
     transform="translate(-14.195146,-37.337373)"
     viewBox="0 0 28 29"
     id="linkedin">
    <g
       style="fill:none;fill-rule:evenodd"
       id="g1083">
      <path
         style="fill:currentColor;fill-rule:nonzero"
         inkscape:connector-curvature="0"
         id="path1079"
         d="M 2.063,0 H 25.85 c 1.14,0 2.063,0.916 2.063,2.046 V 26.52 c 0,1.13 -0.923,2.047 -2.063,2.047 H 2.063 A 2.055,2.055 0 0 1 0,26.52 V 2.046 C 0,0.916 0.924,0 2.063,0 Z" />
      <path
         style="fill:#ffffff"
         inkscape:connector-curvature="0"
         id="path1081"
         d="m 8.518,23.988 v -12.9 H 4.302 v 12.9 z M 6.41,9.328 c 1.47,0 2.385,-0.99 2.385,-2.229 C 8.768,5.834 7.88,4.871 6.438,4.871 c -1.442,0 -2.385,0.963 -2.385,2.228 0,1.238 0.915,2.229 2.33,2.229 z m 4.643,14.365 h 4.216 v -7.204 c 0,-0.386 0.027,-0.77 0.139,-1.046 0.304,-0.77 0.998,-1.568 2.163,-1.568 1.525,0 2.136,1.183 2.136,2.917 v 6.9 h 4.216 v -7.396 c 0,-3.962 -2.08,-5.806 -4.854,-5.806 -2.275,0 -3.273,1.293 -3.828,2.174 h 0.028 v -1.87 h -4.216 c 0.055,1.21 0,12.899 0,12.899 z" />
    </g>
  </symbol>
  <symbol
     transform="translate(-14.195146,-37.337373)"
     id="logo">
    <path
       style="fill:currentColor;fill-rule:evenodd"
       inkscape:connector-curvature="0"
       id="path1086"
       d="m 140.68,53.934 c 0,0.183 -0.09,0.36 -0.272,0.525 -0.953,0.97 -2.202,1.458 -3.75,1.458 -1.434,0 -2.414,-0.503 -2.93,-1.506 -0.18,-0.363 -0.308,-0.82 -0.386,-1.37 -0.03,-0.226 -0.066,-0.703 -0.113,-1.433 -0.06,-1.02 -0.053,-2.023 0.023,-3.01 0.075,-0.883 0.24,-1.885 0.5,-3.01 0.047,-0.183 0.296,-1.165 0.75,-2.94 0.408,-1.566 0.688,-2.585 0.84,-3.06 0.36,-1.077 0.718,-1.766 1.068,-2.072 0.076,-0.06 0.144,-0.09 0.205,-0.09 0.227,0 0.364,0.615 0.407,1.846 0.015,0.592 0.015,1.67 0,3.238 -0.03,1.945 -0.007,4.073 0.067,6.384 0.05,1.306 0.214,2.21 0.5,2.713 0.152,0.273 0.418,0.492 0.798,0.66 0.33,0.137 0.657,0.264 0.974,0.388 0.88,0.364 1.32,0.792 1.32,1.276 z m -15.015,-4.108 c 0,-0.272 -0.1,-0.745 -0.294,-1.413 -0.106,-0.38 -0.214,-0.753 -0.32,-1.114 -0.396,-1.568 -0.818,-2.79 -1.273,-3.67 -0.334,-0.637 -0.67,-0.96 -1.004,-0.96 -0.258,0 -0.533,0.17 -0.82,0.503 -0.988,1.14 -1.63,1.946 -1.935,2.416 -1.064,1.624 -1.596,3.03 -1.596,4.212 0,0.85 0.32,1.467 0.957,1.846 0.456,0.258 0.965,0.387 1.527,0.387 1.122,0 2.678,-0.637 4.668,-1.912 0.062,-0.032 0.09,-0.132 0.09,-0.297 z m 6.143,2.868 c 0,1.17 -0.404,2 -1.205,2.485 -0.332,0.198 -0.69,0.295 -1.07,0.295 -0.772,0 -1.537,-0.378 -2.29,-1.138 a 6.84,6.84 0 0 1 -1.206,-1.62 6.591,6.591 0 0 0 -0.17,-0.443 c -0.068,-0.16 -0.157,-0.215 -0.262,-0.172 -0.407,0.168 -0.71,0.297 -0.908,0.388 a 283.016,283.016 0 0 0 -4.86,2.32 c -1.547,0.65 -2.652,0.977 -3.318,0.977 -0.38,0 -0.72,-0.067 -1.023,-0.205 -0.623,-0.272 -0.93,-0.89 -0.93,-1.847 0,-0.377 0.06,-0.866 0.18,-1.457 0.244,-1.216 0.78,-2.727 1.614,-4.535 1,-2.156 1.757,-3.778 2.275,-4.856 0.347,-0.744 0.7,-1.496 1.065,-2.257 0.407,-0.88 0.71,-1.647 0.91,-2.3 1.178,-2.266 3.535,-0.714 7.063,4.65 0.952,1.445 1.713,2.72 2.27,3.832 1.244,2.447 1.865,4.41 1.865,5.882 z m -30.634,2.965 c -0.606,0 -1.05,-0.306 -1.328,-0.91 -0.28,-0.608 -0.42,-1.385 -0.42,-2.326 0,-0.714 0.108,-1.74 0.32,-3.077 0.317,-1.87 0.573,-3.906 0.77,-6.108 0.198,-2.008 0.524,-3.586 0.977,-4.742 0.288,-0.728 0.64,-1.094 1.046,-1.094 0.105,0 0.212,0.032 0.316,0.09 0.393,0.214 0.5,0.71 0.32,1.484 -0.26,0.743 -0.388,1.586 -0.388,2.53 0,0.833 0.098,1.64 0.296,2.413 0.454,1.765 1.24,2.647 2.365,2.647 0.148,0 0.307,-0.025 0.475,-0.07 0.97,-0.228 1.914,-1.254 2.838,-3.08 0.455,-0.946 0.91,-1.895 1.364,-2.853 0.56,-1.065 1.18,-1.894 1.863,-2.487 0.634,-0.548 1.166,-0.822 1.588,-0.822 0.198,0 0.372,0.054 0.524,0.16 0.483,0.318 0.717,1.055 0.704,2.213 -0.018,0.957 -0.168,2.127 -0.454,3.51 -0.455,2.115 -0.7,3.28 -0.73,3.49 -0.12,0.822 -0.188,1.854 -0.203,3.102 v 1.847 c -0.017,1.02 -0.06,1.873 -0.137,2.554 -0.09,0.852 -0.363,1.287 -0.82,1.3 -0.46,0.017 -0.826,-0.18 -1.11,-0.59 -0.28,-0.412 -0.413,-1.11 -0.397,-2.1 0,-0.15 0.012,-0.426 0.04,-0.83 0.026,-0.403 0.038,-0.718 0.038,-0.945 0,-1.064 -0.235,-1.835 -0.706,-2.314 -0.468,-0.476 -1.115,-0.715 -1.935,-0.715 -1.168,0 -2.32,0.357 -3.46,1.07 -1.034,0.653 -1.51,1.503 -1.435,2.55 0.018,0.155 0.056,0.443 0.12,0.87 0.063,0.363 0.095,0.65 0.095,0.864 0,0.483 -0.13,0.89 -0.384,1.207 -0.624,0.776 -1.34,1.162 -2.156,1.162 z M 97.237,43.557 c -0.214,0.82 -0.483,2.24 -0.82,4.26 -0.3,1.81 -0.604,3.216 -0.905,4.217 -0.502,1.642 -1.045,2.697 -1.636,3.17 -0.274,0.21 -0.547,0.317 -0.82,0.317 -0.803,0 -1.583,-0.996 -2.34,-2.986 -0.605,-1.594 -1.067,-2.673 -1.385,-3.236 -0.694,-1.26 -1.514,-2.05 -2.453,-2.37 A 2.634,2.634 0 0 0 86.13,46.816 c -0.835,0 -1.57,0.507 -2.205,1.524 -0.455,0.73 -0.82,1.622 -1.09,2.683 -0.515,2.063 -0.818,3.206 -0.908,3.433 -0.305,0.774 -0.66,1.16 -1.07,1.16 -0.167,0 -0.317,-0.092 -0.452,-0.273 -0.198,-0.245 -0.297,-0.584 -0.297,-1.027 0,-0.3 0.093,-0.843 0.273,-1.617 0.41,-1.564 0.72,-2.742 0.933,-3.534 0.56,-2.036 1.287,-4.476 2.18,-7.315 0.226,-0.882 0.448,-1.76 0.66,-2.644 0.393,-1.214 0.93,-1.822 1.613,-1.822 0.18,0 0.368,0.04 0.565,0.116 0.443,0.168 0.89,0.47 1.343,0.914 0.21,0.195 0.582,0.602 1.116,1.21 1.042,1.282 1.82,2.24 2.337,2.88 1.045,1.264 1.967,1.837 2.77,1.715 0.577,-0.077 1.022,-0.678 1.34,-1.803 0.244,-0.987 0.486,-1.982 0.728,-2.984 0.453,-1.278 1.12,-1.915 2,-1.915 0.106,0 0.21,0.01 0.317,0.023 0.273,0.152 0.41,0.458 0.41,0.912 0,0.214 -0.04,0.493 -0.116,0.842 -0.545,1.917 -0.992,3.337 -1.34,4.264 z M 75.855,38.01 c 0.848,-0.388 1.65,-0.582 2.41,-0.582 1.012,0 1.626,0.38 1.84,1.143 0.06,0.857 -0.373,1.537 -1.296,2.04 -0.714,0.414 -1.547,0.644 -2.5,0.687 -1.212,0.06 -2.022,-0.182 -2.43,-0.733 a 0.89,0.89 0 0 1 -0.183,-0.574 c 0,-0.363 0.138,-0.617 0.408,-0.753 0.318,-0.427 0.903,-0.835 1.75,-1.226 z m 3.453,9.052 c -0.015,1.622 -0.385,3.45 -1.113,5.48 -0.167,0.55 -0.334,1.087 -0.5,1.617 -0.243,0.664 -0.545,1.122 -0.908,1.362 -0.138,0.09 -0.257,0.137 -0.363,0.137 -0.38,0 -0.59,-0.667 -0.635,-2.003 l -0.09,-3.07 c -0.08,-0.65 -0.147,-1.305 -0.21,-1.955 -0.15,-0.818 -0.4,-1.41 -0.747,-1.777 -0.214,-0.225 -0.678,-0.466 -1.398,-0.715 -0.72,-0.25 -1.274,-0.604 -1.668,-1.058 -0.107,-0.712 0.732,-1.297 2.518,-1.75 a 6.528,6.528 0 0 1 1.682,-0.23 c 0.744,0 1.396,0.145 1.956,0.434 1.015,0.517 1.507,1.69 1.475,3.526 z m -9.16,-6.837 c -0.09,0.03 -0.628,0.153 -1.61,0.365 -1.152,0.243 -1.88,0.955 -2.183,2.14 -0.212,0.803 -0.317,1.79 -0.317,2.958 0,0.594 0.036,1.376 0.113,2.347 0.076,1.198 0.124,1.973 0.138,2.322 0.12,3.158 -0.425,4.904 -1.638,5.236 -0.12,0.028 -0.242,0.048 -0.36,0.048 -0.91,0 -1.365,-1.108 -1.365,-3.327 0,-0.504 0.038,-1.193 0.113,-2.074 0.168,-2.174 0.25,-3.747 0.25,-4.72 0,-1.063 -0.06,-2.043 -0.18,-2.94 -0.197,-1.336 -0.76,-2.148 -1.682,-2.44 -2.06,-0.652 -3.226,-1.033 -3.498,-1.138 -0.637,-0.273 -0.955,-0.538 -0.955,-0.798 0,-0.182 0.198,-0.318 0.59,-0.41 A 12.823,12.823 0 0 1 60.63,37.43 c 0.517,0 1.796,-0.007 3.84,-0.024 1.59,-0.013 2.877,-0.013 3.86,0 1.546,0.017 2.697,0.174 3.455,0.473 0.424,0.168 0.636,0.42 0.636,0.75 0,0.395 -0.232,0.725 -0.693,0.98 a 6.47,6.47 0 0 1 -1.58,0.615 z M 50.84,44.3 c 0.775,-0.835 1.162,-1.656 1.162,-2.462 0,-0.652 -0.265,-1.17 -0.795,-1.548 -0.576,-0.427 -1.417,-0.638 -2.523,-0.638 -0.728,0 -1.55,0.098 -2.475,0.295 0.06,4.24 0.56,6.36 1.5,6.36 1.285,-0.458 2.33,-1.125 3.13,-2.006 z m 0,3.28 c -0.406,0.322 -0.595,0.526 -0.565,0.617 0.062,0.228 0.198,0.487 0.41,0.774 0.075,0.107 0.255,0.328 0.546,0.663 1.544,1.794 2.437,2.85 2.68,3.166 0.8,1.05 1.273,1.794 1.408,2.236 0.03,0.075 0.045,0.15 0.045,0.227 0,0.29 -0.242,0.433 -0.725,0.433 -0.23,0 -0.51,-0.04 -0.842,-0.115 -1.47,-0.33 -3.143,-1.427 -5.02,-3.28 a 48.177,48.177 0 0 0 -0.84,-0.866 c -0.5,-0.487 -0.832,-0.73 -1,-0.73 -0.06,0 -0.098,0.023 -0.113,0.07 -0.183,0.79 -0.28,1.403 -0.296,1.837 -0.016,0.433 -0.037,0.865 -0.067,1.29 -0.032,0.536 -0.138,0.953 -0.32,1.258 -0.272,0.47 -0.703,0.707 -1.294,0.707 a 1.07,1.07 0 0 1 -0.66,-0.204 c -0.3,-0.23 -0.513,-0.615 -0.636,-1.163 -0.03,-0.106 -0.098,-0.563 -0.203,-1.37 -0.136,-1.06 -0.226,-2.354 -0.273,-3.874 0,-1.354 0.007,-2.7 0.024,-4.037 0,-1.626 -0.107,-2.963 -0.32,-4.012 a 1.386,1.386 0 0 0 -0.657,-0.96 c -0.365,-0.228 -0.716,-0.452 -1.057,-0.67 -0.34,-0.223 -0.51,-0.462 -0.51,-0.72 0,-0.275 0.205,-0.502 0.613,-0.682 0.68,-0.304 1.583,-0.512 2.704,-0.617 0.03,0 0.962,-0.047 2.794,-0.137 2.574,-0.137 4.618,-0.068 6.13,0.205 2.623,0.472 3.85,1.512 3.683,3.122 -0.122,1.11 -0.743,2.28 -1.863,3.51 -0.53,0.608 -1.53,1.527 -3,2.757 -0.255,0.2 -0.515,0.388 -0.773,0.57 z m -16.31,2.246 c 0,-0.272 -0.1,-0.745 -0.295,-1.413 -0.107,-0.38 -0.213,-0.753 -0.318,-1.114 -0.396,-1.568 -0.822,-2.79 -1.277,-3.67 -0.333,-0.637 -0.668,-0.96 -1.002,-0.96 -0.26,0 -0.53,0.17 -0.82,0.503 -0.988,1.14 -1.633,1.946 -1.936,2.416 -1.064,1.624 -1.594,3.03 -1.594,4.212 0,0.85 0.318,1.467 0.957,1.846 a 3.04,3.04 0 0 0 1.526,0.387 c 1.124,0 2.68,-0.637 4.67,-1.912 0.06,-0.032 0.09,-0.132 0.09,-0.297 z m 6.14,2.868 c 0,1.17 -0.4,2 -1.203,2.485 -0.334,0.198 -0.69,0.295 -1.067,0.295 -0.773,0 -1.538,-0.378 -2.295,-1.138 a 6.797,6.797 0 0 1 -1.202,-1.62 7.887,7.887 0 0 0 -0.17,-0.443 c -0.07,-0.16 -0.157,-0.215 -0.264,-0.172 -0.41,0.168 -0.712,0.297 -0.908,0.388 a 284.847,284.847 0 0 0 -4.862,2.32 c -1.544,0.65 -2.65,0.977 -3.317,0.977 -0.38,0 -0.72,-0.067 -1.02,-0.205 -0.623,-0.272 -0.933,-0.89 -0.933,-1.847 0,-0.377 0.062,-0.866 0.182,-1.457 0.242,-1.216 0.78,-2.727 1.613,-4.535 a 440.303,440.303 0 0 1 2.272,-4.856 c 0.348,-0.744 0.703,-1.496 1.067,-2.257 0.41,-0.88 0.71,-1.647 0.91,-2.3 1.18,-2.266 3.534,-0.714 7.064,4.65 0.952,1.445 1.71,2.72 2.27,3.832 1.243,2.447 1.863,4.41 1.863,5.882 z M 20.763,49.412 c -0.653,1.383 -1.28,2.585 -1.885,3.6 -0.653,1.094 -1.196,1.854 -1.637,2.282 -0.27,0.272 -0.514,0.41 -0.726,0.41 -0.257,0 -0.386,-0.268 -0.386,-0.8 0,-0.303 0.166,-1.024 0.5,-2.164 0.545,-1.76 0.96,-3.075 1.248,-3.94 0.53,-1.626 0.833,-2.745 0.91,-3.35 0.092,-0.67 -0.03,-1.003 -0.364,-1.003 -0.09,0 -0.19,0.022 -0.295,0.07 -0.454,0.195 -0.97,0.53 -1.544,1 -0.456,0.396 -0.917,0.8 -1.386,1.21 -1.758,1.503 -3,2.49 -3.726,2.96 -0.8,0.532 -1.445,0.8 -1.93,0.8 -0.333,0 -0.65,-0.108 -0.953,-0.322 C 8.073,49.802 7.567,49.271 7.066,48.571 6.87,48.284 6.483,47.647 5.906,46.658 A 131.506,131.506 0 0 0 4.772,44.743 C 4.256,43.97 3.849,43.581 3.545,43.581 c -0.272,0 -0.515,0.223 -0.726,0.663 -0.153,0.32 -0.26,0.656 -0.318,1.008 -0.123,0.79 -0.1,2.15 0.066,4.072 0.183,2.09 0.257,3.476 0.228,4.163 -0.06,1.448 -0.372,2.188 -0.93,2.218 C 1.68,55.719 1.5,55.561 1.318,55.232 0.984,54.714 0.698,53.819 0.455,52.542 0.15,50.96 0,49.2 0,47.257 0,44.477 0.386,42.169 1.158,40.332 1.672,39.118 2.331,38.259 3.133,37.76 a 3.14,3.14 0 0 1 1.705,-0.503 c 0.622,0 1.17,0.196 1.647,0.582 0.476,0.388 0.912,0.948 1.307,1.676 0.182,0.353 0.476,1.014 0.885,1.988 0.53,1.265 0.81,1.926 0.84,1.986 0.35,0.746 0.735,1.34 1.16,1.78 0.09,0.092 0.204,0.137 0.34,0.137 0.242,0 0.71,-0.328 1.41,-0.98 a 206.766,206.766 0 0 0 2.93,-2.916 c 1.392,-1.35 2.59,-2.348 3.59,-2.987 1.18,-0.744 2.225,-1.116 3.134,-1.116 1.165,0 1.81,0.403 1.93,1.207 0.03,0.2 0.046,0.406 0.046,0.618 0,0.5 -0.114,1.23 -0.342,2.186 -0.53,2.295 -1.513,4.96 -2.95,7.998 z m 122.42,-28.797 c 0,-7.898 6.4,-14.32 14.27,-14.32 7.872,0 14.272,6.422 14.272,14.32 0,7.895 -6.4,14.32 -14.27,14.32 -7.87,0 -14.273,-6.425 -14.273,-14.32 z m -6.277,0 c 0,11.368 9.217,20.614 20.548,20.614 C 168.784,41.229 178,31.982 178,20.614 178,9.248 168.784,0 157.454,0 146.124,0 136.906,9.248 136.906,20.615 Z" />
  </symbol>
  <symbol
     transform="translate(-14.195146,-37.337373)"
     viewBox="0 0 28 29"
     id="mail">
    <g
       style="fill:none;fill-rule:nonzero"
       id="g1093">
      <path
         style="fill:currentColor"
         inkscape:connector-curvature="0"
         id="path1089"
         d="M 2.063,0 H 25.85 c 1.14,0 2.063,0.916 2.063,2.046 V 26.52 c 0,1.13 -0.923,2.047 -2.063,2.047 H 2.063 A 2.055,2.055 0 0 1 0,26.52 V 2.046 C 0,0.916 0.924,0 2.063,0 Z" />
      <path
         style="fill:#ffffff"
         inkscape:connector-curvature="0"
         id="path1091"
         d="M 5.818,9 A 0.855,0.855 0 0 0 5.646,9.019 l 7.939,6.495 c 0.195,0.16 0.635,0.16 0.83,0 l 7.94,-6.495 A 0.855,0.855 0 0 0 22.181,9 Z M 5.038,9.577 A 0.791,0.791 0 0 0 5,9.803 v 8.836 c 0,0.08 0.017,0.154 0.038,0.226 l 5.881,-4.48 -5.88,-4.808 z m 17.924,0 -5.881,4.808 5.88,4.48 A 0.791,0.791 0 0 0 23,18.64 V 9.803 A 0.791,0.791 0 0 0 22.962,9.577 Z m -11.404,5.335 -5.906,4.512 c 0.053,0.01 0.11,0.019 0.166,0.019 h 16.364 a 0.854,0.854 0 0 0 0.166,-0.02 l -5.906,-4.511 -1.502,1.223 c -0.54,0.442 -1.34,0.442 -1.88,0 z" />
    </g>
  </symbol>
  <symbol
     transform="translate(-14.195146,-37.337373)"
     viewBox="0 0 800 600"
     id="menu">
    <path
       inkscape:connector-curvature="0"
       id="path1096"
       d="m 300,220 h 240 c 200,0 100,320 -20,200 L 300,200 m 0,120 h 240" />
    <path
       inkscape:connector-curvature="0"
       id="path1098"
       d="M 300,428 H 540 C 740,428 640,108 520,228 L 300,448" />
  </symbol>
  <symbol
     transform="translate(-14.195146,-37.337373)"
     viewBox="0 0 38 38"
     id="oval">
    <g
       style="fill:none;fill-rule:evenodd;stroke-width:2"
       id="g1105"
       transform="translate(1,1)">
      <circle
         style="stroke-opacity:0.5"
         id="circle1101"
         r="18"
         cy="18"
         cx="18" />
      <path
         inkscape:connector-curvature="0"
         id="path1103"
         d="M 36,18 C 36,8.06 27.94,0 18,0">
        <animateTransform
           repeatCount="indefinite"
           dur="1s"
           to="360 18 18"
           from="0 18 18"
           type="rotate"
           attributeName="transform" />
      </path>
    </g>
  </symbol>
  <symbol
     transform="translate(-14.195146,-37.337373)"
     viewBox="0 0 20 20"
     id="play">
    <title
       id="title1108">Group 2</title>
    <g
       style="fill:#ffffff;fill-rule:nonzero"
       id="g1114">
      <path
         inkscape:connector-curvature="0"
         id="path1110"
         d="m 10,0.104 c -5.458,0 -9.896,4.438 -9.896,9.896 0,5.458 4.438,9.896 9.896,9.896 5.458,0 9.896,-4.438 9.896,-9.896 0,-5.458 -4.438,-9.896 -9.896,-9.896 z m 0,18.958 C 5,19.063 0.937,15 0.937,10 0.938,5 5,0.937 10,0.937 15,0.938 19.063,5 19.063,10 19.063,15 15,19.063 10,19.063 Z" />
      <path
         inkscape:connector-curvature="0"
         id="path1112"
         d="M 14.354,8.98 8.604,5.396 A 1.233,1.233 0 0 0 7.375,5.354 1.17,1.17 0 0 0 6.75,6.417 v 7.187 c 0,0.438 0.23,0.834 0.625,1.063 a 1.221,1.221 0 0 0 1.23,-0.042 l 5.75,-3.583 c 0.353,-0.23 0.562,-0.604 0.562,-1.021 A 1.24,1.24 0 0 0 14.354,8.979 Z m -0.458,1.332 -5.75,3.584 a 0.337,0.337 0 0 1 -0.375,0 C 7.708,13.854 7.583,13.771 7.583,13.583 V 6.396 c 0,-0.188 0.125,-0.292 0.188,-0.313 A 0.416,0.416 0 0 1 7.958,6.042 c 0.063,0 0.125,0.02 0.188,0.062 l 5.75,3.583 c 0.146,0.105 0.166,0.25 0.166,0.313 0.021,0.063 0,0.208 -0.166,0.313 z" />
    </g>
  </symbol>
  <symbol
     transform="translate(-14.195146,-37.337373)"
     viewBox="0 0 20 19"
     id="pool">
    <title
       id="title1117">Group</title>
    <g
       style="fill:#ffffff;fill-rule:nonzero"
       id="g1125">
      <path
         inkscape:connector-curvature="0"
         id="path1119"
         d="M 0.115,18.568 0.007,17.758 4.94,17.1 a 41.082,41.082 0 0 1 14.604,0.665 l -0.181,0.796 A 40.21,40.21 0 0 0 5.047,17.909 l -4.931,0.66 z M 18.637,10.447 5.114,5.664 4.867,5.141 c 0.63,-1.757 1.972,-3.148 3.778,-3.917 1.801,-0.77 3.836,-0.817 5.731,-0.133 3.93,1.42 6.074,5.506 4.78,9.109 l -0.52,0.247 z M 5.786,5.036 18.512,9.536 C 19.374,6.455 17.466,3.073 14.099,1.859 12.4,1.245 10.576,1.286 8.963,1.975 7.503,2.598 6.389,3.675 5.786,5.035 Z" />
      <path
         inkscape:connector-curvature="0"
         id="path1121"
         d="M 15.091,9.138 14.326,8.862 14.463,8.478 C 15.699,5.042 15.272,2.282 14.1,1.858 13.523,1.651 12.713,2.021 11.883,2.879 10.967,3.827 10.148,5.224 9.577,6.812 L 9.439,7.196 8.673,6.919 8.811,6.536 C 9.421,4.84 10.304,3.34 11.3,2.31 c 1.078,-1.116 2.173,-1.548 3.078,-1.22 1.79,0.646 2.165,4.013 0.854,7.663 l -0.14,0.384 z" />
      <path
         inkscape:connector-curvature="0"
         id="path1123"
         d="m 8.099,17.044 3.487,-9.402 0.937,0.347 -3.487,9.403 z" />
    </g>
  </symbol>
  <symbol
     transform="translate(-14.195146,-37.337373)"
     viewBox="0 0 50 50"
     id="shopping">
    <g
       style="fill:none;fill-rule:evenodd"
       id="g1136">
      <rect
         style="fill:#ffffff"
         y="0"
         x="0"
         id="rect1128"
         rx="25"
         height="50"
         width="50" />
      <g
         style="fill:#f18030;fill-rule:nonzero"
         id="g1134">
        <path
           inkscape:connector-curvature="0"
           id="path1130"
           d="m 37.067,18.944 h -7.88 L 27.26,14.79 c -0.11,-0.28 -0.44,-0.393 -0.716,-0.28 -0.276,0.111 -0.386,0.448 -0.276,0.729 l 1.709,3.704 H 22.08 l 1.763,-3.648 c 0.11,-0.28 0,-0.617 -0.276,-0.73 -0.275,-0.112 -0.606,0 -0.716,0.28 L 20.867,19 h -7.88 c -0.77,0 -1.377,0.617 -1.377,1.403 v 2.582 c 0,0.785 0.606,1.403 1.378,1.403 h 0.826 l 1.764,10.944 c 0.11,0.73 0.771,1.347 1.542,1.347 h 15.925 c 0.716,0 1.433,-0.618 1.543,-1.347 l 1.763,-10.944 h 0.827 c 0.771,0 1.377,-0.618 1.377,-1.403 v -2.582 c -0.165,-0.842 -0.771,-1.46 -1.488,-1.46 z M 33.431,35.05 c -0.055,0.225 -0.22,0.393 -0.441,0.393 H 17.065 c -0.22,0 -0.385,-0.168 -0.44,-0.393 L 14.916,24.275 H 35.14 L 33.43,35.05 Z m 3.857,-12.122 c 0,0.505 0.385,0.28 -24.355,0.28 -0.166,0 -0.276,-0.112 -0.276,-0.28 v -2.582 c 0,-0.168 0.11,-0.28 0.276,-0.28 h 7.328 l -0.661,1.29 c -0.11,0.28 0,0.617 0.276,0.73 0.275,0.112 0.606,0 0.716,-0.28 l 0.881,-1.797 h 6.998 l 0.827,1.852 c 0.11,0.28 0.44,0.393 0.716,0.28 0.276,-0.111 0.386,-0.448 0.276,-0.729 l -0.606,-1.347 h 7.328 c 0.166,0 0.276,0.113 0.276,0.28 z" />
        <path
           inkscape:connector-curvature="0"
           id="path1132"
           d="m 18.829,33.872 c 0.33,0 0.55,-0.224 0.55,-0.56 v -7.409 c 0,-0.337 -0.22,-0.561 -0.55,-0.561 -0.331,0 -0.551,0.224 -0.551,0.561 v 7.408 c 0,0.28 0.22,0.561 0.55,0.561 z m 2.92,0 c 0.33,0 0.551,-0.224 0.551,-0.56 v -7.409 c 0,-0.337 -0.22,-0.561 -0.551,-0.561 -0.33,0 -0.551,0.224 -0.551,0.561 v 7.408 c 0,0.28 0.275,0.561 0.551,0.561 z m 2.975,0 c 0.331,0 0.552,-0.224 0.552,-0.56 v -7.409 c 0,-0.337 -0.22,-0.561 -0.552,-0.561 -0.33,0 -0.55,0.224 -0.55,0.561 v 7.408 c 0,0.28 0.22,0.561 0.55,0.561 z m 2.921,0 c 0.33,0 0.55,-0.224 0.55,-0.56 v -7.409 c 0,-0.337 -0.22,-0.561 -0.55,-0.561 -0.33,0 -0.551,0.224 -0.551,0.561 v 7.408 c 0,0.28 0.275,0.561 0.55,0.561 z m 2.975,0 c 0.331,0 0.551,-0.224 0.551,-0.56 v -7.409 c 0,-0.337 -0.22,-0.561 -0.55,-0.561 -0.331,0 -0.552,0.224 -0.552,0.561 v 7.408 c 0,0.28 0.22,0.561 0.551,0.561 z" />
      </g>
    </g>
  </symbol>
  <symbol
     transform="translate(-14.195146,-37.337373)"
     viewBox="0 0 50 50"
     id="swimming_pool">
    <title
       id="title1139">Group 23</title>
    <g
       style="fill:none;fill-rule:evenodd"
       id="g1145">
      <rect
         style="fill:#ffffff"
         y="0"
         x="0"
         id="rect1141"
         rx="25"
         height="50"
         width="50" />
      <path
         style="fill:#f18030;fill-rule:nonzero"
         inkscape:connector-curvature="0"
         id="path1143"
         d="m 14.957,29.998 c 0.823,0 1.198,0.232 1.673,0.525 0.538,0.333 1.148,0.71 2.323,0.71 1.175,0 1.785,-0.377 2.323,-0.71 0.475,-0.293 0.85,-0.525 1.674,-0.525 0.824,0 1.198,0.232 1.673,0.525 0.539,0.333 1.149,0.71 2.323,0.71 1.176,0 1.786,-0.377 2.325,-0.71 0.475,-0.293 0.85,-0.525 1.674,-0.525 0.824,0 1.2,0.232 1.675,0.525 0.539,0.333 1.148,0.71 2.324,0.71 a 0.618,0.618 0 1 0 0,-1.235 c -0.824,0 -1.2,-0.231 -1.674,-0.525 -0.54,-0.332 -1.15,-0.709 -2.325,-0.709 -0.277,0 -0.52,0.022 -0.74,0.058 V 16.214 a 1.443,1.443 0 0 1 2.884,0 0.6185,0.6185 0 0 0 1.237,0 2.68,2.68 0 0 0 -5.358,0 v 4.63 h -7.83 v -4.63 a 1.443,1.443 0 0 1 2.885,0 0.6185,0.6185 0 0 0 1.237,0 2.68,2.68 0 0 0 -5.358,0 v 13.372 c 0,0.087 0.019,0.17 0.052,0.246 -0.264,0.102 -0.57,0.166 -1.001,0.166 -0.823,0 -1.198,-0.232 -1.673,-0.525 -0.538,-0.333 -1.148,-0.71 -2.323,-0.71 a 0.6175,0.6175 0 1 0 0,1.235 z m 13.662,-0.525 c -0.474,0.294 -0.85,0.525 -1.674,0.525 -0.823,0 -1.197,-0.231 -1.673,-0.524 -0.538,-0.333 -1.148,-0.71 -2.323,-0.71 -0.827,0 -1.372,0.188 -1.812,0.414 v -2.574 h 7.83 v 2.662 c -0.12,0.069 -0.236,0.139 -0.348,0.207 z m 0.349,-7.396 v 3.292 h -7.83 v -3.292 z m 5.975,11.624 c -0.824,0 -1.2,-0.231 -1.674,-0.525 -0.54,-0.332 -1.15,-0.709 -2.325,-0.709 -1.176,0 -1.786,0.377 -2.325,0.71 -0.475,0.293 -0.85,0.524 -1.674,0.524 -0.823,0 -1.198,-0.231 -1.673,-0.524 -0.539,-0.333 -1.149,-0.71 -2.323,-0.71 -1.176,0 -1.786,0.377 -2.325,0.71 -0.474,0.293 -0.85,0.524 -1.673,0.524 -0.823,0 -1.198,-0.231 -1.673,-0.524 -0.538,-0.333 -1.148,-0.71 -2.323,-0.71 a 0.617,0.617 0 1 0 0,1.234 c 0.823,0 1.198,0.232 1.673,0.525 0.538,0.333 1.148,0.71 2.323,0.71 1.175,0 1.785,-0.377 2.324,-0.71 0.474,-0.293 0.85,-0.525 1.674,-0.525 0.823,0 1.198,0.232 1.673,0.525 0.538,0.333 1.148,0.71 2.323,0.71 1.175,0 1.786,-0.377 2.324,-0.71 0.475,-0.293 0.85,-0.525 1.675,-0.525 0.824,0 1.199,0.232 1.674,0.525 0.539,0.333 1.149,0.71 2.324,0.71 a 0.618,0.618 0 1 0 0,-1.235 z m 0,3.704 c -0.824,0 -1.2,-0.232 -1.674,-0.525 -0.54,-0.333 -1.15,-0.71 -2.325,-0.71 -1.176,0 -1.786,0.377 -2.325,0.71 -0.475,0.293 -0.85,0.525 -1.674,0.525 -0.823,0 -1.198,-0.232 -1.673,-0.525 -0.539,-0.333 -1.149,-0.71 -2.323,-0.71 -1.176,0 -1.786,0.377 -2.325,0.71 -0.474,0.293 -0.85,0.525 -1.673,0.525 -0.823,0 -1.198,-0.232 -1.673,-0.525 -0.538,-0.333 -1.148,-0.71 -2.323,-0.71 a 0.6175,0.6175 0 1 0 0,1.235 c 0.823,0 1.198,0.231 1.673,0.524 0.538,0.333 1.148,0.71 2.323,0.71 1.175,0 1.785,-0.377 2.324,-0.71 0.474,-0.293 0.85,-0.524 1.674,-0.524 0.823,0 1.198,0.231 1.673,0.524 0.538,0.333 1.148,0.71 2.323,0.71 1.175,0 1.786,-0.377 2.324,-0.71 0.475,-0.293 0.85,-0.524 1.675,-0.524 0.824,0 1.199,0.231 1.674,0.524 0.539,0.333 1.149,0.71 2.324,0.71 a 0.618,0.618 0 1 0 0,-1.234 z" />
    </g>
  </symbol>
  <symbol
     transform="translate(-14.195146,-37.337373)"
     viewBox="0 0 27 27"
     id="trees">
    <title
       id="title1148">noun_1043238_cc copy 2</title>
    <g
       style="fill:#ffffff;fill-rule:nonzero"
       id="g1152">
      <path
         inkscape:connector-curvature="0"
         id="path1150"
         d="m 4.656,26.34 v -9.72 l 2.74,2.744 c 0.131,0.132 0.33,0.132 0.462,0 a 0.32,0.32 0 0 0 0,-0.463 L 4.656,15.693 V 14.57 l 2.74,2.745 c 0.131,0.132 0.33,0.132 0.462,0 a 0.32,0.32 0 0 0 0,-0.463 L 4.656,13.644 v -1.19 l 2.74,2.744 c 0.065,0.066 0.164,0.1 0.23,0.1 a 0.3,0.3 0 0 0 0.232,-0.1 0.32,0.32 0 0 0 0,-0.463 L 4.656,11.528 v -1.19 l 2.74,2.744 c 0.131,0.132 0.33,0.132 0.462,0 a 0.32,0.32 0 0 0 0,-0.463 l -3.3,-3.306 a 0.3,0.3 0 0 0 -0.232,-0.1 0.3,0.3 0 0 0 -0.23,0.1 l -3.302,3.305 a 0.32,0.32 0 0 0 0,0.463 c 0.066,0.066 0.165,0.1 0.23,0.1 a 0.3,0.3 0 0 0 0.232,-0.1 l 2.739,-2.744 v 1.19 l -3.2,3.207 a 0.32,0.32 0 0 0 0,0.463 c 0.132,0.133 0.33,0.133 0.462,0 l 2.739,-2.744 v 1.19 l -3.201,3.208 a 0.32,0.32 0 0 0 0,0.463 c 0.066,0.066 0.165,0.099 0.23,0.099 a 0.3,0.3 0 0 0 0.232,-0.1 l 2.739,-2.744 v 1.124 l -3.201,3.208 a 0.32,0.32 0 0 0 0,0.463 c 0.066,0.066 0.165,0.099 0.23,0.099 a 0.3,0.3 0 0 0 0.232,-0.1 l 2.739,-2.744 v 9.722 c 0,0.198 0.132,0.33 0.33,0.33 0.198,0 0.33,-0.165 0.33,-0.33 z M 25.878,13.081 c 0.132,0.132 0.33,0.132 0.462,0 a 0.32,0.32 0 0 0 0,-0.463 l -3.3,-3.306 a 0.3,0.3 0 0 0 -0.232,-0.1 0.3,0.3 0 0 0 -0.23,0.1 l -3.301,3.306 a 0.32,0.32 0 0 0 0,0.463 c 0.066,0.066 0.165,0.1 0.231,0.1 a 0.3,0.3 0 0 0 0.231,-0.1 l 2.74,-2.744 v 1.19 l -3.202,3.207 a 0.32,0.32 0 0 0 0,0.463 c 0.132,0.133 0.33,0.133 0.462,0 l 2.74,-2.744 v 1.19 l -3.202,3.208 a 0.32,0.32 0 0 0 0,0.463 c 0.066,0.066 0.165,0.099 0.231,0.099 a 0.3,0.3 0 0 0 0.231,-0.1 l 2.74,-2.744 v 1.124 l -3.202,3.208 a 0.32,0.32 0 0 0 0,0.463 c 0.066,0.066 0.165,0.099 0.231,0.099 a 0.3,0.3 0 0 0 0.231,-0.1 l 2.74,-2.744 v 9.722 c 0,0.198 0.131,0.33 0.33,0.33 0.197,0 0.33,-0.132 0.33,-0.33 v -9.722 l 2.739,2.745 c 0.132,0.132 0.33,0.132 0.462,0 a 0.32,0.32 0 0 0 0,-0.463 L 23.138,15.693 V 14.57 l 2.74,2.745 c 0.132,0.132 0.33,0.132 0.462,0 a 0.32,0.32 0 0 0 0,-0.463 l -3.202,-3.208 v -1.19 l 2.74,2.744 c 0.066,0.066 0.165,0.1 0.23,0.1 a 0.3,0.3 0 0 0 0.232,-0.1 0.32,0.32 0 0 0 0,-0.463 l -3.202,-3.207 v -1.19 l 2.74,2.744 z m -8.318,0.562 c 0.067,0.066 0.166,0.1 0.232,0.1 a 0.3,0.3 0 0 0 0.23,-0.1 0.32,0.32 0 0 0 0,-0.463 L 13.93,9.08 V 7.394 l 3.598,3.637 c 0.066,0.066 0.165,0.1 0.23,0.1 a 0.3,0.3 0 0 0 0.232,-0.1 0.32,0.32 0 0 0 0,-0.463 l -4.06,-4.1 V 4.715 l 3.598,3.638 c 0.066,0.066 0.165,0.099 0.23,0.099 a 0.3,0.3 0 0 0 0.232,-0.1 0.32,0.32 0 0 0 0,-0.462 L 13.93,3.79 V 2.036 l 3.598,3.637 c 0.066,0.066 0.165,0.1 0.23,0.1 a 0.3,0.3 0 0 0 0.232,-0.1 0.32,0.32 0 0 0 0,-0.463 l -4.159,-4.2 a 0.3,0.3 0 0 0 -0.23,-0.098 0.3,0.3 0 0 0 -0.232,0.099 l -4.158,4.2 a 0.32,0.32 0 0 0 0,0.462 c 0.132,0.133 0.33,0.133 0.462,0 L 13.27,2.036 v 1.752 l -4.06,4.1 a 0.32,0.32 0 0 0 0,0.464 c 0.133,0.132 0.33,0.132 0.463,0 L 13.27,4.714 v 1.753 l -4.06,4.1 a 0.32,0.32 0 0 0 0,0.463 c 0.133,0.132 0.33,0.132 0.463,0 L 13.27,7.393 V 9.08 l -4.06,4.1 a 0.32,0.32 0 0 0 0,0.463 c 0.133,0.133 0.33,0.133 0.463,0 l 3.597,-3.637 v 16.236 c 0,0.198 0.132,0.33 0.33,0.33 0.198,0 0.33,-0.132 0.33,-0.33 V 10.006 Z" />
    </g>
  </symbol>
  <symbol
     transform="translate(-14.195146,-37.337373)"
     viewBox="0 0 29 24"
     id="twitter">
    <g
       style="fill:none;fill-rule:evenodd"
       id="g1161"
       transform="matrix(1,0,0,-1,0,24)">
      <mask
         fill="#fff"
         id="mask1157">
        <use
           height="100%"
           width="100%"
           y="0"
           x="0"
           id="use1155"
           xlink:href="#a" />
      </mask>
      <path
         style="fill:currentColor"
         inkscape:connector-curvature="0"
         id="path1159"
         mask="url(#b)"
         transform="translate(-0.021)"
         d="m 25.5,20.164 a 6.047,6.047 0 0 1 2.604,3.345 11.705,11.705 0 0 0 -3.763,-1.467 5.862,5.862 0 0 1 -4.324,1.909 c -3.273,0 -5.926,-2.707 -5.926,-6.046 0,-0.474 0.052,-0.936 0.154,-1.378 -4.925,0.252 -9.291,2.66 -12.214,6.317 a 6.109,6.109 0 0 1 -0.802,-3.04 6.077,6.077 0 0 1 2.636,-5.032 5.804,5.804 0 0 0 -2.684,0.756 v -0.076 c 0,-2.93 2.042,-5.373 4.753,-5.929 A 5.815,5.815 0 0 0 3.258,9.419 C 4.012,7.017 6.2,5.27 8.793,5.22 A 11.744,11.744 0 0 0 0.02,2.716 16.534,16.534 0 0 1 9.103,0 c 10.899,0 16.858,9.213 16.858,17.204 0,0.262 -0.006,0.522 -0.017,0.781 a 12.206,12.206 0 0 1 2.957,3.131 11.648,11.648 0 0 0 -3.402,-0.952 z" />
    </g>
  </symbol>
  <symbol
     transform="translate(-14.195146,-37.337373)"
     id="webcam">
    <path
       style="fill:currentColor"
       inkscape:connector-curvature="0"
       id="path1164"
       d="m 10.597,1.394 c 0,-0.07 -0.06,-0.126 -0.152,-0.126 H 1.395 A 0.128,0.128 0 0 0 1.268,1.394 v 8.113 c 0,0.08 0.045,0.127 0.126,0.127 h 9.076 a 0.13,0.13 0 0 0 0.127,-0.127 z m 1.268,0 v 8.113 c 0,0.776 -0.633,1.394 -1.395,1.394 H 1.394 A 1.38,1.38 0 0 1 0,9.508 V 1.394 C 0,0.62 0.633,0 1.394,0 h 9.05 c 0.78,0 1.42,0.612 1.42,1.394 z M 18,1.624 v 7.655 c 0,0.625 -0.672,1.06 -1.218,0.732 L 12.397,7.6 V 3.274 l 4.38,-2.38 C 17.34,0.568 18,1 18,1.623 Z m -0.587,0.365 -0.02,0.01 z m 0,6.923 -0.033,-0.02 z M 13.665,4.027 V 6.85 l 3.067,1.688 V 2.36 l -3.067,1.668 z" />
  </symbol>
  <g
     inkscape:export-ydpi="96"
     inkscape:export-xdpi="96"
     inkscape:export-filename="/var/www/html/wpg/wp-content/themes/wpg-2019/images/wpg-logo.png"
     id="g1174">
    <text
       xml:space="preserve"
       style="font-style:normal;font-variant:normal;font-weight:normal;font-stretch:normal;font-size:134.235px;line-height:1.25;font-family:'Noto Sans Buhid';-inkscape-font-specification:'Noto Sans Buhid';letter-spacing:0px;word-spacing:0px;fill:url(#linearGradient1152);fill-opacity:1;stroke:none;stroke-width:1.15089"
       x="-188.81618"
       y="47.631981"
       id="text1175"><tspan
         sodipodi:role="line"
         id="tspan1173"
         x="-188.81618"
         y="47.631981"
         style="font-style:normal;font-variant:normal;font-weight:normal;font-stretch:normal;font-family:'TeX Gyre Adventor';-inkscape-font-specification:'TeX Gyre Adventor';fill:url(#linearGradient1152);fill-opacity:1;stroke:none;stroke-width:1.15089">G</tspan></text>
    <circle
       style="fill:none;fill-opacity:1;stroke:url(#linearGradient1144);stroke-width:6.61236;stroke-miterlimit:4;stroke-dasharray:none;stroke-opacity:1"
       id="path1179"
       cx="-134.54359"
       cy="-1.231395"
       r="71.693817" />
  </g>
</svg>
